<?xml version="1.0" standalone="no"?>
<!DOCTYPE svg PUBLIC "-//W3C//DTD SVG 20010904//EN"
 "http://www.w3.org/TR/2001/REC-SVG-20010904/DTD/svg10.dtd">
<svg version="1.0" xmlns="http://www.w3.org/2000/svg"
 width="1281.000000pt" height="556.000000pt" viewBox="0 0 1281.000000 556.000000"
 preserveAspectRatio="xMidYMid meet">

<g transform="translate(0.000000,556.000000) scale(0.100000,-0.100000)"
fill="#000000" stroke="none">
<path d="M6440 4856 c-146 -41 -264 -127 -370 -266 -107 -142 -171 -285 -211
-471 -31 -139 -33 -419 -6 -548 73 -340 242 -595 472 -711 218 -111 453 -80
658 87 145 119 249 290 317 523 86 293 57 647 -75 935 -96 207 -286 387 -470
444 -78 24 -240 28 -315 7z m114 -82 c21 -8 23 -94 2 -94 -7 0 -28 -3 -45 -6
-31 -6 -31 -6 -31 38 0 60 25 81 74 62z m-114 -54 l0 -50 -45 0 -45 0 0 44 c0
48 6 54 58 55 32 1 32 1 32 -49z m260 5 l0 -45 -45 0 -45 0 0 45 0 45 45 0 45
0 0 -45z m128 -7 l3 -48 -45 0 -46 0 0 51 0 50 43 -3 42 -3 3 -47z m-525 -48
c-4 -4 -23 -10 -41 -14 -61 -11 -53 35 13 76 l30 18 3 -36 c2 -20 0 -40 -5
-44z m607 65 c29 -15 50 -43 50 -65 0 -7 -16 -10 -42 -8 -43 3 -43 3 -46 46
-4 47 -2 48 38 27z m-476 -152 l-1 -48 -40 -3 c-43 -3 -55 8 -48 44 2 11 4 27
4 37 1 13 10 17 44 17 l42 0 -1 -47z m136 2 l0 -45 -45 0 -45 0 0 45 0 45 45
0 45 0 0 -45z m130 0 l0 -45 -45 0 -45 0 0 45 0 45 45 0 45 0 0 -45z m130 -5
l0 -50 -45 0 -45 0 0 50 0 50 45 0 45 0 0 -50z m-530 -10 l0 -50 -45 0 -45 0
0 39 c0 34 4 41 28 49 55 21 62 17 62 -38z m644 40 c22 -8 26 -16 26 -50 l0
-40 -45 0 -45 0 0 50 c0 55 10 61 64 40z m-774 -50 c0 -43 -18 -60 -64 -60
-36 0 -34 33 3 71 42 42 61 38 61 -11z m905 15 c14 -13 25 -36 25 -51 0 -25
-2 -26 -37 -19 -52 9 -53 11 -53 56 0 33 3 39 20 39 12 0 32 -11 45 -25z
m-635 -131 l0 -45 -47 3 c-46 3 -47 4 -48 38 -1 48 0 50 51 50 l44 0 0 -46z
m130 1 l0 -45 -45 0 c-25 0 -45 3 -46 8 -4 26 -5 68 -1 75 2 4 23 7 48 7 l44
0 0 -45z m130 0 l0 -45 -45 0 -45 0 0 45 0 45 45 0 45 0 0 -45z m138 -7 l3
-48 -45 0 c-26 0 -46 3 -47 8 0 4 -2 26 -4 50 l-4 43 47 -3 47 -3 3 -47z
m-540 -5 l-3 -48 -46 -3 c-43 -3 -46 -1 -43 20 1 13 3 35 3 51 1 25 4 27 47
27 l45 0 -3 -47z m672 -3 l0 -50 -45 0 -45 0 0 50 0 50 45 0 45 0 0 -50z
m-808 29 c2 -5 2 -28 0 -49 -4 -37 -5 -38 -48 -42 l-44 -3 0 47 c0 47 0 47 38
51 20 2 40 4 44 5 3 1 8 -3 10 -9z m934 1 c10 0 14 -13 14 -45 0 -44 -1 -45
-32 -45 -54 0 -64 14 -60 79 2 21 6 23 33 17 17 -3 38 -6 45 -6z m83 -44 c27
-43 27 -58 -1 -54 -19 2 -24 10 -26 46 -2 23 -1 42 2 42 2 0 14 -15 25 -34z
m-1149 -16 c0 -25 -15 -40 -40 -40 -5 0 -1 18 8 39 19 44 32 44 32 1z m400
-100 l0 -50 -45 0 -45 0 0 50 0 50 45 0 45 0 0 -50z m140 4 l0 -45 -47 3 c-47
3 -48 3 -49 38 -1 48 1 50 52 50 l44 0 0 -46z m138 2 c0 -25 -5 -46 -11 -49
-10 -4 -44 -3 -79 2 -5 1 -8 21 -8 46 l0 45 49 0 49 0 0 -44z m132 -6 l0 -50
-45 0 -45 0 0 50 0 50 45 0 45 0 0 -50z m140 -6 l0 -44 -45 0 -45 0 0 48 0 47
45 -3 45 -4 0 -44z m-690 1 c0 -32 -4 -45 -14 -45 -7 0 -28 -3 -45 -6 l-31 -6
0 51 0 51 45 0 45 0 0 -45z m-130 -10 c0 -29 -4 -45 -12 -45 -7 0 -30 -3 -50
-6 l-38 -7 0 45 c0 25 3 48 7 51 3 4 26 7 50 7 l43 0 0 -45z m958 -9 c3 -47 2
-48 -20 -42 -13 3 -35 6 -50 6 -26 0 -28 3 -28 46 l0 45 48 -3 47 -3 3 -49z
m99 29 c24 -17 39 -63 25 -77 -5 -5 -26 -6 -46 -3 -35 7 -36 9 -36 51 0 49 17
57 57 29z m-1197 -35 c0 -25 -5 -40 -12 -41 -7 -1 -25 -3 -40 -5 -24 -2 -28 1
-28 22 0 42 18 64 50 64 28 0 30 -2 30 -40z m268 -113 l3 -47 -50 0 -51 0 0
44 c0 44 0 45 38 49 55 5 57 4 60 -46z m137 3 c0 -44 0 -44 -35 -45 -54 -2
-60 3 -60 52 l0 44 48 -3 47 -3 0 -45z m143 3 l-3 -48 -45 0 -45 0 -3 48 -3
47 51 0 51 0 -3 -47z m142 3 c0 -48 -5 -52 -60 -51 -35 0 -35 1 -38 48 l-3 47
50 0 51 0 0 -44z m130 -6 l0 -50 -45 0 -45 0 0 50 0 50 45 0 45 0 0 -50z
m-690 -10 l0 -50 -48 0 -49 0 2 43 c1 38 4 43 31 48 63 14 64 13 64 -41z m830
36 c0 -7 3 -28 6 -45 l7 -31 -52 0 -51 0 0 45 0 45 45 0 c32 0 45 -4 45 -14z
m118 8 c19 -5 22 -13 22 -51 l0 -44 -42 3 -43 3 -3 48 c-3 43 -1 47 20 47 13
0 33 -3 46 -6z m158 -18 c1 -1 4 -18 7 -39 7 -44 -4 -53 -58 -43 -34 7 -35 8
-35 52 l0 44 43 -6 c23 -4 42 -7 43 -8z m-1246 -35 c0 -42 -11 -51 -60 -51
-29 0 -39 20 -32 68 3 19 9 22 48 22 l44 0 0 -39z m140 -121 l0 -50 -45 0
c-52 0 -61 11 -51 63 6 30 9 32 51 35 l45 3 0 -51z m135 0 l0 -45 -45 0 c-44
0 -45 1 -48 33 -5 51 1 58 49 57 l44 -1 0 -44z m145 5 c0 -39 -3 -45 -24 -51
-49 -12 -71 -2 -74 34 -5 53 2 62 53 62 l45 0 0 -45z m138 -2 l-3 -48 -45 0
-45 0 -3 48 -3 47 51 0 51 0 -3 -47z m140 0 c-3 -42 -6 -48 -27 -51 -12 -2
-34 -1 -47 2 -21 6 -24 12 -24 51 l0 45 51 0 50 0 -3 -47z m138 12 c6 -55 -3
-66 -52 -64 l-44 3 0 48 0 49 46 -3 c44 -3 47 -5 50 -33z m139 -15 l0 -45 -47
-3 -48 -3 0 44 c0 24 3 47 7 51 4 4 25 6 48 4 l40 -3 0 -45z m138 27 c4 -10 3
-41 -2 -69 0 -5 -21 -8 -46 -8 l-45 0 0 45 0 45 44 0 c26 0 46 -5 49 -13z
m-1115 -39 l-3 -43 -45 0 c-42 0 -45 2 -48 28 -6 48 3 57 53 57 l46 0 -3 -42z
m1257 -3 l0 -40 -45 0 -45 0 -3 43 -3 43 48 -3 48 -3 0 -40z m-980 -124 l0
-44 -47 -3 -48 -3 0 50 0 50 48 -3 47 -3 0 -44z m145 5 c0 -48 -6 -53 -60 -52
-35 1 -35 2 -38 49 l-3 47 50 0 51 0 0 -44z m140 -7 l0 -50 -47 3 -48 3 -3 48
-3 47 50 0 51 0 0 -51z m140 6 l0 -45 -50 0 -50 0 0 45 0 45 50 0 50 0 0 -45z
m138 -2 l-3 -46 -47 -3 -48 -3 0 49 0 50 51 0 50 0 -3 -47z m140 3 c4 -45 -3
-52 -55 -51 -36 0 -38 2 -41 33 -5 54 2 64 50 60 42 -3 43 -4 46 -42z m137 -6
l0 -45 -45 0 c-44 0 -45 1 -48 33 -5 54 2 64 50 60 l43 -3 0 -45z m-1120 0 c0
-35 0 -35 -47 -38 l-48 -3 0 41 0 41 48 -3 c47 -3 47 -3 47 -38z m143 -2 c3
-32 0 -38 -20 -43 -13 -3 -34 -4 -48 -2 -21 3 -25 10 -28 46 l-3 42 48 -3 c48
-3 48 -3 51 -40z m1120 0 c-3 -42 -4 -43 -38 -43 -54 -1 -60 4 -60 46 l0 39
51 0 50 0 -3 -42z m-1263 -131 c2 -31 -2 -38 -20 -43 -13 -3 -34 -4 -46 -2
-20 2 -24 10 -27 46 l-3 43 47 -3 c48 -3 48 -3 49 -41z m143 1 l-3 -43 -47 -3
-48 -3 0 45 0 46 51 0 50 0 -3 -42z m138 0 l-2 -43 -47 -3 -47 -3 0 45 0 46
49 0 49 0 -2 -42z m144 -3 l0 -45 -50 0 -50 0 0 45 0 45 50 0 50 0 0 -45z
m138 -2 l-3 -48 -45 0 -45 0 -3 48 -3 47 51 0 51 0 -3 -47z m140 0 l-3 -48
-45 0 -45 0 -3 48 -3 47 51 0 51 0 -3 -47z m142 2 l0 -45 -50 0 -50 0 0 45 0
45 50 0 50 0 0 -45z m140 0 l0 -45 -50 0 -50 0 0 45 0 45 50 0 50 0 0 -45z
m140 0 l0 -45 -50 0 -50 0 0 45 0 45 50 0 50 0 0 -45z m138 3 l-3 -43 -45 0
-45 0 -3 43 -3 42 51 0 51 0 -3 -42z m-1260 -127 c5 -45 -8 -55 -57 -46 -40 7
-41 7 -41 49 l0 42 48 -6 c45 -5 47 -7 50 -39z m142 -12 l0 -52 -37 7 c-21 3
-44 6 -50 6 -9 0 -13 16 -13 45 l0 45 50 0 50 0 0 -51z m138 -1 l3 -48 -50 0
-51 0 0 43 c0 24 2 46 5 49 3 2 24 4 47 4 l43 -1 3 -47z m699 21 c2 -13 1 -34
-2 -46 -5 -20 -12 -23 -50 -23 l-45 0 0 49 0 48 47 -2 c40 -2 47 -6 50 -26z
m141 -15 c3 -39 1 -42 -29 -48 -66 -13 -69 -11 -69 45 l0 50 48 -3 47 -3 3
-41z m142 13 c0 -43 -15 -57 -62 -57 l-38 0 0 45 0 45 50 0 c50 0 50 0 50 -33z
m-842 -24 l-3 -48 -40 2 c-22 1 -43 2 -47 2 -5 1 -8 21 -8 46 l0 45 51 0 50 0
-3 -47z m140 0 l-3 -48 -45 0 -45 0 -3 48 -3 47 51 0 51 0 -3 -47z m142 3 c0
-48 -6 -53 -60 -52 -35 1 -35 2 -38 49 l-3 47 50 0 51 0 0 -44z m138 -3 l3
-43 -50 0 -51 0 0 46 0 45 48 -3 47 -3 3 -42z m-838 -119 c0 -39 -3 -44 -22
-44 -13 0 -28 4 -34 8 -12 7 -35 77 -29 84 2 2 22 2 44 0 l41 -4 0 -44z m124
40 c11 -4 16 -19 16 -50 l0 -44 -39 0 c-44 0 -50 5 -55 49 -5 42 31 63 78 45z
m986 -44 l0 -50 -44 0 c-48 0 -58 14 -49 63 4 20 12 27 37 30 17 2 37 5 44 5
8 1 12 -14 12 -48z m136 18 c-9 -45 -25 -59 -60 -56 -28 3 -31 6 -32 38 -1 48
1 50 53 50 l46 0 -7 -32z m-966 -28 l0 -50 -44 0 c-47 0 -56 9 -56 59 0 37 6
41 57 41 l43 0 0 -50z m690 -2 l0 -48 -45 0 -45 0 0 48 0 47 45 0 45 0 0 -47z
m-550 -2 c0 -25 -3 -47 -7 -49 -5 -3 -26 -2 -48 2 -39 6 -40 8 -43 49 l-3 42
50 0 51 0 0 -44z m138 -3 l-3 -48 -45 0 -45 0 -3 48 -3 47 51 0 51 0 -3 -47z
m142 2 c0 -39 -3 -45 -25 -51 -14 -3 -36 -3 -50 0 -22 6 -25 12 -25 51 l0 45
50 0 50 0 0 -45z m135 3 c0 -44 -13 -54 -72 -57 -21 -1 -23 4 -23 49 l0 50 48
0 48 0 -1 -42z m-825 -114 c0 -54 -16 -55 -42 -3 -23 46 -22 49 12 49 29 0 30
-2 30 -46z m1193 9 c-14 -36 -29 -53 -45 -53 -5 0 -8 20 -8 45 0 45 0 45 34
45 l35 0 -16 -37z m-1064 13 c7 -8 11 -30 9 -48 -3 -31 -5 -33 -38 -30 -47 5
-60 18 -60 58 0 33 1 34 39 34 21 0 44 -6 50 -14z m971 -18 c0 -46 -9 -55 -57
-60 l-43 -4 0 42 c0 22 3 44 7 47 3 4 26 7 50 7 42 0 43 -1 43 -32z m-830 -23
l0 -45 -45 0 -45 0 0 45 0 45 45 0 45 0 0 -45z m690 5 c0 -44 -22 -63 -68 -58
-23 3 -27 8 -27 38 -2 54 3 60 51 60 l44 0 0 -40z m-550 -15 l0 -45 -45 0 -45
0 0 45 0 45 45 0 45 0 0 -45z m138 -2 l-3 -48 -42 -3 c-30 -2 -43 1 -44 10 -5
44 -5 74 -2 81 2 4 24 7 49 7 l45 0 -3 -47z m138 0 l-1 -48 -45 0 -45 0 -3 48
-3 47 49 0 50 0 -2 -47z m134 2 c0 -42 -2 -45 -27 -46 -16 0 -36 -2 -45 -4
-15 -3 -18 4 -18 46 l0 49 45 0 45 0 0 -45z m-686 -77 c2 -1 6 -22 10 -45 6
-41 5 -43 -18 -43 -14 0 -36 4 -50 10 -22 8 -26 16 -26 51 l0 42 41 -6 c22 -3
42 -7 43 -9z m956 -28 c0 -44 -18 -60 -69 -60 -33 0 -35 6 -25 58 6 31 18 37
72 41 19 1 22 -4 22 -39z m-834 20 c22 0 24 -4 24 -51 0 -48 -1 -51 -22 -45
-13 3 -33 6 -45 6 -20 0 -23 5 -23 43 0 48 7 60 28 52 7 -3 25 -5 38 -5z m694
-46 c0 -39 -3 -44 -22 -44 -13 0 -33 -3 -45 -6 -22 -6 -23 -3 -23 44 l0 51 38
3 c20 2 40 2 45 0 4 -2 7 -23 7 -48z m-547 36 c4 0 7 -20 7 -45 l0 -45 -45 0
-45 0 0 51 0 51 38 -6 c20 -3 40 -5 45 -6z m415 -38 l-3 -47 -44 0 c-44 0 -44
0 -47 38 -4 41 11 53 69 55 27 1 28 -1 25 -46z m-268 -12 l0 -50 -45 0 c-25 0
-45 3 -46 8 -4 28 -5 78 -2 85 2 4 24 7 49 7 l44 0 0 -50z m138 3 l-3 -48 -47
-3 -48 -3 0 50 0 51 51 0 50 0 -3 -47z m-538 -100 l0 -37 -30 29 c-16 16 -30
32 -30 37 0 4 14 8 30 8 28 0 30 -3 30 -37z m899 20 c-8 -10 -24 -29 -36 -43
l-23 -25 0 43 c0 42 0 42 36 42 33 0 35 -2 23 -17z m-785 1 c11 -4 16 -19 16
-50 l0 -44 -39 0 c-43 0 -51 10 -51 66 0 31 3 34 29 34 16 0 36 -3 45 -6z
m684 -32 c4 -43 -12 -62 -54 -62 -34 0 -34 1 -34 44 0 38 3 45 23 49 48 10 62
4 65 -31z m-560 22 c18 -5 22 -13 22 -50 l0 -44 -40 0 -40 0 0 50 c0 53 6 58
58 44z m422 -43 c0 -48 -1 -49 -34 -53 -50 -6 -56 -1 -56 47 0 46 5 50 68 54
20 1 22 -3 22 -48z m-262 -13 l3 -48 -45 0 -46 0 0 51 0 50 43 -3 42 -3 3 -47z
m132 2 l0 -50 -45 0 -45 0 0 38 c0 47 14 62 57 62 33 0 33 0 33 -50z m-393
-85 c3 -9 3 -18 0 -21 -6 -7 -47 18 -47 28 0 15 41 8 47 -7z m623 9 c0 -8 -43
-43 -52 -44 -10 0 -10 34 -1 43 8 9 53 9 53 1z m-492 -46 c3 -37 2 -38 -30
-38 -42 0 -58 15 -58 53 0 27 2 28 43 25 41 -3 42 -4 45 -40z m392 14 c0 -37
-17 -52 -57 -52 -31 0 -33 2 -33 34 0 36 9 43 63 45 23 1 27 -3 27 -27z m-262
-14 c-3 -31 -6 -33 -45 -36 l-43 -3 0 35 c0 36 0 36 46 36 45 0 45 0 42 -32z
m127 -3 c0 -28 -3 -30 -42 -33 -41 -3 -43 -2 -43 26 0 38 7 44 50 40 32 -3 35
-6 35 -33z"/>
<path d="M5886 4473 c-6 -14 -5 -15 5 -6 7 7 10 15 7 18 -3 3 -9 -2 -12 -12z"/>
<path d="M7310 4425 c0 -5 5 -17 10 -25 5 -8 10 -10 10 -5 0 6 -5 17 -10 25
-5 8 -10 11 -10 5z"/>
<path d="M5845 4389 c-10 -30 0 -33 13 -4 6 14 7 25 2 25 -5 0 -12 -9 -15 -21z"/>
<path d="M7350 4325 c0 -11 5 -27 10 -35 8 -12 10 -12 10 5 0 11 -5 27 -10 35
-8 12 -10 12 -10 -5z"/>
<path d="M5811 4293 c-1 -6 -4 -20 -7 -30 -5 -17 -5 -17 6 0 6 10 9 23 6 30
-3 9 -5 9 -5 0z"/>
<path d="M7380 4220 c1 -3 7 -30 15 -60 l15 -55 -4 48 c-2 27 -9 54 -15 60 -6
6 -11 9 -11 7z"/>
<path d="M5767 4140 c-4 -14 -6 -36 -6 -50 1 -22 2 -20 10 8 6 19 9 41 7 50
-3 12 -6 10 -11 -8z"/>
<path d="M7421 3944 c0 -11 3 -14 6 -6 3 7 2 16 -1 19 -3 4 -6 -2 -5 -13z"/>
<path d="M7430 3805 c-3 -55 -4 -102 -2 -104 9 -16 12 20 10 105 l-3 99 -5
-100z"/>
<path d="M7422 3660 c0 -14 2 -19 5 -12 2 6 2 18 0 25 -3 6 -5 1 -5 -13z"/>
<path d="M5761 3574 c0 -11 3 -14 6 -6 3 7 2 16 -1 19 -3 4 -6 -2 -5 -13z"/>
<path d="M5766 3523 c9 -38 14 -42 14 -10 0 14 -5 29 -10 32 -7 4 -8 -3 -4
-22z"/>
<path d="M3523 3518 c-18 -6 -33 -16 -33 -23 0 -6 27 -24 60 -38 33 -15 60
-31 60 -36 0 -5 9 -11 20 -14 11 -3 20 -14 20 -25 0 -12 9 -22 21 -25 17 -5
20 -11 15 -34 -7 -31 0 -46 27 -56 15 -6 17 -21 16 -135 -1 -71 1 -134 5 -141
13 -20 26 -11 26 18 0 20 6 30 20 34 15 4 20 14 20 42 0 28 5 38 20 42 16 4
20 14 20 48 0 28 7 50 20 65 11 13 20 35 20 50 0 15 -9 37 -20 50 -11 13 -20
37 -20 56 0 24 -5 34 -20 39 -11 3 -20 15 -20 25 0 47 -191 87 -277 58z"/>
<path d="M9417 3517 c-20 -5 -42 -18 -48 -28 -5 -10 -16 -19 -24 -19 -9 0 -15
-10 -15 -24 0 -15 -7 -26 -20 -29 -19 -5 -20 -14 -20 -132 0 -118 1 -127 20
-132 15 -4 20 -14 20 -39 0 -23 6 -38 20 -46 14 -9 20 -24 20 -46 0 -23 4 -32
13 -30 8 3 14 40 17 121 4 103 7 118 27 137 17 15 21 27 17 48 -5 23 -1 32 20
45 16 11 23 23 20 32 -4 8 -2 15 3 15 5 0 26 15 47 33 20 18 53 39 74 47 65
23 66 35 3 48 -64 14 -138 13 -194 -1z"/>
<path d="M7400 3504 c-1 -5 -5 -28 -9 -51 -5 -23 -5 -40 0 -38 10 7 23 85 15
92 -3 4 -6 2 -6 -3z"/>
<path d="M5811 3324 c0 -11 3 -14 6 -6 3 7 2 16 -1 19 -3 4 -6 -2 -5 -13z"/>
<path d="M7357 3326 c-4 -10 -7 -25 -6 -34 0 -11 4 -9 10 7 5 13 8 29 6 35 -2
5 -6 2 -10 -8z"/>
<path d="M5836 3214 c-12 -46 87 -225 196 -355 48 -57 146 -137 213 -173 28
-15 42 -21 31 -14 -186 131 -297 266 -386 469 -23 52 -43 95 -45 97 -1 2 -6
-9 -9 -24z"/>
<path d="M7304 3179 c-60 -141 -144 -279 -223 -362 -42 -45 -139 -116 -213
-158 -80 -44 -47 -35 45 13 150 76 351 310 407 473 23 67 10 94 -16 34z"/>
<path d="M2616 3103 c-4 -5 -42 -11 -84 -15 -42 -4 -138 -14 -212 -23 -257
-29 -270 -32 -270 -60 0 -11 38 -14 188 -18 168 -4 380 -18 487 -32 22 -3 67
-9 100 -13 64 -9 184 -60 185 -78 0 -7 9 -14 20 -17 11 -3 20 -14 20 -25 0
-11 9 -22 20 -25 17 -4 20 -14 20 -65 0 -69 -6 -92 -26 -92 -9 0 -14 -11 -14
-31 0 -22 -5 -32 -20 -36 -13 -3 -20 -14 -20 -29 0 -13 -5 -24 -11 -24 -6 0
-33 -21 -59 -47 -46 -46 -100 -94 -184 -165 -22 -18 -50 -43 -62 -55 -11 -13
-24 -23 -28 -23 -8 0 -31 -18 -54 -42 -9 -10 -22 -18 -29 -18 -7 0 -13 -7 -13
-15 0 -8 -7 -15 -15 -15 -8 0 -22 -8 -32 -18 -22 -22 -90 -72 -97 -72 -3 0
-14 -7 -23 -16 -31 -27 -86 -62 -140 -89 -29 -15 -53 -30 -53 -34 0 -4 -27
-20 -60 -36 -33 -16 -60 -32 -60 -35 0 -4 -19 -15 -42 -24 -24 -9 -56 -27 -72
-41 -16 -14 -33 -25 -39 -25 -5 0 -36 -18 -69 -40 -33 -22 -67 -40 -75 -40 -8
0 -29 -11 -46 -24 -34 -26 -84 -54 -212 -120 -44 -22 -81 -44 -83 -48 -2 -4
-29 -19 -60 -34 -31 -15 -70 -37 -87 -48 -16 -12 -54 -32 -82 -45 -29 -14 -53
-27 -53 -31 0 -3 -19 -14 -42 -25 -24 -10 -61 -30 -83 -44 -22 -15 -56 -34
-75 -44 -60 -30 -145 -78 -154 -87 -5 -5 -6 -15 -3 -23 5 -12 41 -1 186 58 99
40 206 87 237 104 32 17 63 31 70 31 7 0 14 3 16 8 2 4 73 42 158 85 137 69
338 172 395 204 11 6 40 21 65 33 125 62 297 153 321 171 15 10 32 19 38 19
10 0 76 34 96 50 6 4 48 28 95 53 171 90 205 109 220 121 8 7 30 18 48 26 17
7 32 17 32 22 0 5 8 12 18 16 31 12 122 75 122 84 0 4 5 8 10 8 9 0 47 30 90
71 9 8 24 18 33 22 9 3 17 11 17 16 0 5 9 13 20 16 11 3 20 13 20 21 0 8 7 14
15 14 8 0 15 5 15 10 0 6 11 15 25 20 14 5 25 14 25 19 0 5 9 13 20 16 11 3
20 12 20 20 0 7 9 15 20 18 11 3 20 12 20 20 0 9 9 19 20 22 11 3 20 15 20 25
0 11 9 24 20 30 11 6 20 20 20 31 0 12 8 23 20 26 14 4 20 14 20 34 0 18 7 32
20 39 18 10 20 21 20 130 0 103 -2 121 -18 132 -10 7 -21 21 -25 31 -3 9 -13
17 -22 17 -8 0 -15 6 -15 13 0 11 -12 18 -85 47 -34 13 -168 40 -202 40 -17 0
-35 5 -38 10 -7 12 -408 14 -419 3z"/>
<path d="M10095 3102 c-5 -6 -28 -12 -50 -15 -44 -5 -79 -12 -139 -28 -47 -13
-136 -58 -136 -69 0 -4 -9 -10 -20 -13 -13 -3 -20 -14 -20 -30 0 -16 -7 -26
-20 -30 -18 -5 -20 -14 -20 -105 0 -92 2 -101 20 -107 15 -5 20 -15 20 -40 0
-24 5 -34 20 -38 14 -3 20 -14 20 -32 0 -18 6 -29 20 -32 13 -3 20 -14 20 -28
0 -14 7 -25 20 -28 11 -3 20 -12 20 -20 0 -9 9 -18 19 -22 10 -3 21 -15 24
-25 3 -11 12 -20 20 -20 8 0 17 -7 21 -15 3 -8 12 -15 20 -15 7 0 16 -7 20
-15 3 -8 12 -15 21 -15 8 0 15 -7 15 -15 0 -8 7 -15 15 -15 8 0 19 -9 25 -20
6 -11 17 -20 24 -20 8 0 16 -7 20 -15 3 -8 12 -15 21 -15 8 0 15 -7 15 -15 0
-8 7 -15 15 -15 8 0 19 -9 25 -20 6 -11 17 -20 24 -20 8 0 16 -7 20 -15 3 -8
12 -15 21 -15 8 0 15 -4 15 -10 0 -5 7 -10 15 -10 7 0 18 -6 22 -13 11 -17 88
-67 147 -94 27 -13 54 -29 60 -36 6 -8 31 -22 56 -32 25 -10 52 -24 60 -31 27
-21 90 -54 105 -54 8 0 15 -4 15 -10 0 -5 9 -10 20 -10 11 0 20 -3 20 -8 0 -4
9 -12 19 -17 102 -53 202 -105 283 -148 227 -120 848 -434 963 -487 173 -79
344 -127 301 -85 -7 8 -42 29 -77 47 -35 19 -95 52 -134 73 -38 22 -90 50
-115 63 -25 13 -76 41 -115 63 -38 21 -93 50 -122 64 -28 14 -53 28 -55 32 -1
5 -25 19 -53 33 -27 13 -63 34 -80 45 -16 12 -52 32 -80 45 -27 14 -63 34 -80
45 -16 12 -43 27 -60 35 -16 8 -53 29 -82 47 -29 18 -55 33 -59 33 -4 0 -21
10 -38 23 -17 13 -47 30 -66 37 -19 8 -41 20 -49 27 -7 8 -31 23 -53 34 -22
11 -72 41 -112 67 -39 25 -82 52 -96 60 -14 7 -32 20 -41 28 -8 8 -20 14 -25
14 -5 0 -21 11 -36 25 -15 14 -29 25 -32 25 -3 0 -44 29 -91 65 -46 36 -89 65
-95 65 -5 0 -10 7 -10 15 0 8 -7 15 -15 15 -8 0 -15 5 -15 10 0 6 -11 16 -25
22 -14 6 -25 17 -25 25 0 7 -7 13 -15 13 -9 0 -18 7 -21 15 -3 8 -14 17 -25
20 -11 4 -17 11 -14 16 4 5 -5 13 -19 19 -14 5 -26 14 -26 19 0 5 -9 11 -20
14 -11 3 -20 12 -20 21 0 9 -6 16 -13 16 -13 0 -67 56 -67 70 0 4 -9 10 -20
13 -13 3 -18 11 -14 20 3 10 -4 22 -21 33 -18 12 -25 23 -21 37 6 25 -3 47
-19 47 -30 0 -34 95 -5 110 11 6 20 20 20 31 0 11 7 22 16 26 9 3 28 17 42 30
55 51 129 74 287 88 28 2 106 9 175 15 69 7 205 14 303 17 177 5 177 5 177 28
0 21 -5 24 -62 28 -64 6 -285 30 -433 48 -115 15 -478 22 -490 11z"/>
<path d="M7311 3036 c-6 -16 -10 -31 -7 -33 7 -8 28 37 23 50 -3 7 -10 -1 -16
-17z"/>
<path d="M5841 3045 c1 -19 18 -51 18 -35 0 8 -4 22 -9 30 -5 8 -9 11 -9 5z"/>
<path d="M7276 2935 c-9 -26 -7 -32 5 -12 6 10 9 21 6 23 -2 3 -7 -2 -11 -11z"/>
<path d="M5887 2909 c4 -13 8 -18 11 -10 2 7 -1 18 -6 23 -8 8 -9 4 -5 -13z"/>
<path d="M5920 2844 c0 -6 7 -19 16 -30 14 -18 14 -18 3 6 -14 31 -19 36 -19
24z"/>
<path d="M7232 2825 c-6 -14 -8 -25 -3 -25 8 0 23 41 17 47 -1 2 -8 -8 -14
-22z"/>
<path d="M5960 2759 c0 -9 9 -24 20 -34 11 -10 20 -24 20 -31 0 -14 19 -29 27
-21 3 3 -8 23 -23 44 -41 56 -44 59 -44 42z"/>
<path d="M7197 2763 c-4 -3 -7 -11 -7 -17 0 -6 5 -5 12 2 6 6 9 14 7 17 -3 3
-9 2 -12 -2z"/>
<path d="M5900 2714 c0 -13 73 -129 108 -171 88 -107 244 -202 392 -239 108
-27 288 -25 394 5 133 37 244 101 331 190 27 28 34 41 23 41 -9 0 -24 -7 -32
-16 -9 -9 -24 -13 -35 -9 -18 6 -18 8 6 50 13 25 29 47 34 50 5 4 9 11 9 17 0
6 -24 -14 -52 -44 -145 -150 -315 -230 -487 -229 -187 0 -305 55 -475 220 -49
47 -86 81 -82 74 3 -6 3 -18 0 -27 -11 -30 -93 24 -108 72 -6 19 -26 32 -26
16z"/>
<path d="M7310 2698 c0 -9 5 -20 10 -23 13 -8 13 5 0 25 -8 13 -10 13 -10 -2z"/>
<path d="M7157 2693 c-4 -3 -7 -11 -7 -17 0 -6 5 -5 12 2 6 6 9 14 7 17 -3 3
-9 2 -12 -2z"/>
<path d="M3710 2674 c-56 -17 -85 -32 -130 -64 -47 -34 -85 -71 -93 -92 -3
-10 -13 -18 -22 -18 -9 0 -15 -9 -15 -21 0 -12 -8 -23 -20 -26 -13 -4 -20 -14
-20 -30 0 -16 -7 -27 -20 -30 -13 -3 -20 -14 -20 -28 0 -13 -11 -30 -26 -40
-20 -13 -23 -19 -14 -30 10 -12 16 -12 39 -1 14 8 38 25 52 38 35 33 149 82
240 103 61 14 99 16 190 11 261 -16 400 -11 659 24 36 5 128 16 205 25 77 9
169 20 205 26 36 5 97 14 135 18 39 5 88 12 110 15 22 3 76 11 120 16 44 6
112 15 150 21 39 5 102 13 140 18 39 5 86 14 105 19 69 20 -1095 1 -1415 -23
-98 -7 -204 7 -310 43 -140 48 -166 50 -245 26z"/>
<path d="M5846 2673 c-6 -14 -5 -15 5 -6 7 7 10 15 7 18 -3 3 -9 -2 -12 -12z"/>
<path d="M7250 2679 c0 -5 5 -7 10 -4 6 3 10 8 10 11 0 2 -4 4 -10 4 -5 0 -10
-5 -10 -11z"/>
<path d="M9290 2680 c-8 -5 -28 -10 -43 -10 -15 0 -49 -10 -75 -21 -58 -27
-187 -50 -244 -45 -24 3 -162 8 -308 11 -146 4 -283 9 -305 12 -65 9 -870 15
-862 7 10 -11 29 -14 117 -25 41 -5 102 -13 135 -18 33 -6 119 -17 190 -26
125 -16 189 -24 333 -44 37 -6 130 -17 207 -26 218 -26 273 -32 370 -46 50 -7
159 -11 245 -10 333 6 406 6 439 -2 60 -14 185 -69 222 -99 20 -15 41 -28 47
-28 5 0 13 -7 16 -16 8 -21 26 -8 26 20 0 16 -7 26 -21 29 -16 4 -20 11 -16
27 4 16 -1 23 -19 30 -14 6 -24 18 -24 29 0 11 -9 25 -20 31 -11 6 -20 17 -20
25 0 8 -9 19 -20 25 -11 6 -20 17 -20 24 0 8 -9 16 -20 19 -11 3 -20 12 -20
21 0 9 -7 16 -15 16 -9 0 -18 7 -21 15 -4 8 -10 15 -16 15 -5 0 -24 11 -41 24
-46 34 -186 57 -217 36z"/>
<path d="M5927 2344 c3 -8 9 -14 14 -14 5 0 9 -7 9 -15 0 -12 -8 -11 -51 6
-98 38 -59 11 101 -71 89 -45 163 -80 165 -78 2 2 -38 35 -88 73 -127 97 -157
117 -150 99z"/>
<path d="M7115 2229 c-39 -34 -72 -64 -75 -66 -15 -13 43 16 88 44 29 19 50
38 46 44 -3 5 0 16 6 24 24 29 3 14 -65 -46z"/>
<path d="M3445 2172 c-26 -4 -67 -19 -133 -49 -29 -12 -57 -23 -63 -23 -5 0
-44 -15 -87 -34 -42 -19 -124 -53 -182 -76 -58 -23 -123 -50 -145 -60 -22 -10
-55 -24 -72 -31 -30 -13 -42 -36 -27 -51 3 -3 28 2 57 12 29 10 104 30 167 45
63 15 119 32 125 36 5 5 19 9 32 9 12 0 40 6 60 14 79 28 157 37 199 22 85
-30 154 -67 154 -82 0 -9 9 -18 20 -21 11 -3 20 -14 20 -24 0 -11 7 -19 15
-19 9 0 18 -12 22 -30 3 -17 14 -35 24 -41 11 -5 19 -21 19 -34 0 -14 8 -29
20 -35 12 -6 20 -21 20 -35 0 -14 8 -29 20 -35 11 -6 20 -21 20 -33 0 -12 9
-28 20 -35 11 -7 20 -22 20 -35 0 -12 9 -28 20 -35 11 -7 20 -21 20 -32 0 -10
9 -24 20 -30 13 -7 20 -21 20 -39 0 -20 6 -30 20 -34 15 -4 20 -14 20 -36 0
-36 15 -41 24 -8 10 39 6 64 -14 82 -15 14 -20 31 -20 69 0 39 -5 56 -20 69
-14 12 -20 29 -20 60 0 31 -6 49 -20 62 -14 13 -20 31 -20 61 0 33 -5 46 -20
54 -15 8 -20 21 -20 51 0 32 -4 42 -20 46 -15 4 -20 14 -20 38 0 24 -5 34 -20
38 -14 4 -20 14 -20 35 0 22 -6 32 -20 37 -14 4 -20 15 -20 35 0 19 -6 29 -20
33 -12 3 -20 14 -20 26 0 12 -4 21 -8 21 -5 0 -19 9 -32 20 -13 11 -30 20 -39
21 -9 0 -25 2 -36 3 -11 1 -29 0 -40 -2z"/>
<path d="M9593 2158 c-13 -6 -23 -17 -23 -23 0 -7 -9 -15 -20 -18 -11 -3 -20
-14 -20 -25 0 -11 -9 -22 -20 -25 -13 -3 -20 -14 -20 -31 0 -15 -8 -30 -20
-36 -13 -7 -20 -21 -20 -39 0 -20 -6 -30 -20 -34 -15 -4 -20 -14 -20 -41 0
-25 -6 -38 -20 -46 -15 -8 -20 -21 -20 -50 0 -29 -5 -42 -20 -50 -15 -8 -20
-21 -20 -55 0 -33 -6 -50 -20 -62 -15 -13 -20 -30 -20 -65 0 -37 -5 -51 -20
-60 -16 -10 -20 -24 -20 -65 0 -43 -4 -54 -21 -64 -18 -9 -21 -17 -16 -51 8
-60 25 -68 29 -14 2 19 10 31 25 37 18 7 22 14 19 35 -4 20 0 27 14 31 20 5
24 14 20 46 -1 11 7 21 19 24 12 3 22 12 22 19 1 8 2 19 3 25 0 6 9 16 19 23
9 7 17 24 17 38 0 17 8 28 24 36 17 8 23 17 19 31 -3 13 2 23 16 30 13 7 21
22 21 36 0 14 9 30 20 37 11 7 20 21 20 32 0 10 12 29 26 42 14 13 22 29 19
35 -4 6 2 13 14 16 12 3 21 12 21 19 0 8 6 14 14 14 7 0 19 7 26 15 17 20 83
49 149 65 57 13 42 16 261 -50 52 -16 142 -41 200 -55 58 -14 113 -30 122 -35
11 -6 27 -6 45 1 l27 10 -24 14 c-32 18 -30 17 -195 88 -77 33 -158 67 -180
77 -53 24 -121 51 -231 94 -96 38 -175 46 -221 24z"/>
<path d="M4950 1653 c-57 -9 -70 -15 -104 -47 -20 -18 -36 -42 -36 -53 0 -11
-9 -30 -20 -43 -24 -27 -26 -65 -5 -74 8 -3 18 -24 21 -47 5 -29 13 -43 25
-46 11 -3 19 -11 19 -18 0 -22 50 -35 140 -35 l90 0 0 65 c0 55 3 66 21 76 31
16 9 31 -41 27 -47 -3 -64 -22 -31 -33 17 -5 21 -15 21 -55 0 -46 -2 -49 -33
-59 -35 -12 -47 -10 -104 16 -24 10 -33 20 -33 38 0 15 -6 25 -14 25 -20 0
-26 23 -26 92 0 51 3 61 20 65 11 3 20 13 20 22 0 10 14 27 30 40 24 17 41 21
83 19 45 -3 52 -6 55 -25 5 -37 32 -28 32 11 0 30 -4 34 -31 40 -33 6 -56 6
-99 -1z"/>
<path d="M6955 1650 c-11 -4 -30 -10 -42 -15 -13 -4 -23 -16 -23 -26 0 -11 -7
-22 -15 -25 -8 -4 -15 -14 -15 -24 0 -10 7 -20 15 -24 8 -3 15 -15 15 -26 0
-11 7 -23 16 -27 9 -3 28 -17 42 -29 14 -13 31 -24 39 -24 7 0 18 -11 23 -25
5 -14 14 -25 20 -25 5 0 10 -9 10 -20 0 -11 -6 -20 -14 -20 -7 0 -16 -9 -19
-20 -4 -15 -14 -20 -41 -20 -20 0 -36 5 -36 11 0 16 -66 80 -74 72 -3 -4 -6
-20 -6 -37 0 -24 6 -34 27 -43 39 -19 147 -17 163 2 7 8 19 15 26 15 10 0 14
15 14 56 0 62 -1 64 -103 135 -52 37 -58 44 -55 72 3 28 8 33 42 42 29 7 41 6
44 -3 2 -7 12 -12 22 -12 10 0 20 -7 24 -15 8 -21 26 -19 26 4 0 22 -57 62
-86 60 -11 -1 -28 -4 -39 -9z"/>
<path d="M7285 1653 c-11 -3 -24 -9 -29 -14 -6 -5 -17 -9 -25 -9 -22 -1 -61
-35 -61 -54 0 -8 -9 -20 -20 -26 -17 -9 -20 -21 -20 -90 0 -70 2 -79 20 -85
11 -3 20 -14 20 -24 0 -11 17 -26 44 -39 35 -18 61 -22 135 -22 l91 0 0 70 c0
54 4 72 15 76 34 13 11 24 -52 24 l-67 0 32 -29 c41 -38 43 -76 5 -108 -14
-13 -36 -23 -47 -23 -29 0 -86 36 -86 54 0 8 -9 18 -20 21 -18 6 -20 15 -20
92 0 77 2 88 24 108 13 12 25 27 27 34 6 17 110 26 137 12 12 -6 22 -21 22
-31 0 -11 4 -20 10 -20 12 0 24 45 17 64 -8 20 -98 32 -152 19z"/>
<path d="M4300 1636 c0 -8 7 -16 15 -20 21 -8 22 -296 1 -296 -8 0 -16 -7 -20
-15 -5 -13 11 -15 109 -15 105 0 115 2 115 18 0 10 -2 21 -5 24 -6 6 -61 -11
-84 -26 -7 -5 -16 -5 -20 0 -3 5 -15 14 -26 20 -18 10 -20 22 -20 138 0 110 2
129 18 140 9 7 17 21 17 30 0 13 -10 16 -50 16 -36 0 -50 -4 -50 -14z"/>
<path d="M4608 1618 c3 -18 8 -35 12 -38 4 -3 11 -46 15 -96 5 -73 4 -94 -8
-105 -8 -8 -16 -32 -19 -52 l-4 -37 53 0 c51 0 71 14 38 26 -12 5 -15 32 -15
160 0 130 2 154 15 154 8 0 15 5 15 10 0 6 -24 10 -53 10 l-54 0 5 -32z"/>
<path d="M5327 1608 c-2 -24 -6 -49 -8 -57 -3 -8 6 -17 21 -21 21 -5 25 -12
25 -45 0 -34 -3 -40 -24 -43 -35 -5 -71 7 -71 24 0 8 -4 12 -10 9 -12 -8 -13
-75 -1 -94 7 -11 11 -9 20 8 14 25 58 28 101 6 26 -14 30 -21 30 -60 l0 -45
50 0 c48 0 67 14 35 26 -8 4 -15 12 -15 20 0 8 -9 22 -20 31 -14 12 -20 30
-20 60 0 32 -5 45 -20 53 -15 8 -20 21 -20 50 0 21 -7 45 -15 54 -8 8 -19 26
-25 40 -14 38 -27 32 -33 -16z"/>
<path d="M5713 1633 c14 -17 17 -40 17 -160 0 -113 -3 -143 -15 -153 -32 -27
-15 -32 88 -28 71 3 111 9 132 21 17 9 38 19 48 23 9 3 17 12 17 19 0 8 9 17
20 20 18 6 20 15 20 100 0 85 -2 94 -20 100 -11 3 -20 13 -20 20 0 32 -61 49
-185 53 -118 4 -120 4 -102 -15z m219 -38 c5 -8 16 -15 23 -15 11 0 15 -12 15
-44 0 -26 5 -46 13 -49 10 -3 10 -9 0 -26 -7 -11 -13 -38 -13 -58 0 -35 -4
-40 -48 -61 -30 -15 -60 -22 -82 -20 l-35 3 -3 144 c-2 91 1 148 8 156 9 11
20 10 62 -1 29 -7 56 -20 60 -29z"/>
<path d="M6100 1644 c0 -3 7 -12 15 -20 12 -12 15 -44 15 -152 0 -130 -1 -139
-22 -157 l-23 -20 124 -3 c69 -1 131 0 139 3 9 3 12 18 10 42 -3 42 -20 48
-28 11 -5 -21 -11 -23 -65 -23 l-60 0 -3 63 c-4 81 5 86 101 47 15 -6 17 -1
17 39 0 51 -3 53 -48 30 -53 -26 -67 -17 -70 46 -4 68 11 91 51 83 18 -4 32
-15 39 -32 10 -26 10 -26 20 -4 22 46 7 53 -107 53 -58 0 -105 -3 -105 -6z"/>
<path d="M6570 1492 c0 -126 -3 -162 -16 -180 l-15 -22 130 0 131 0 0 24 c0
51 -26 78 -32 34 -3 -21 -9 -23 -66 -26 l-63 -3 3 68 3 68 38 3 c26 2 39 -1
43 -12 12 -32 34 -17 34 23 0 46 -13 59 -36 36 -10 -10 -29 -15 -48 -13 -29 3
-31 6 -34 47 -5 73 3 91 42 91 18 0 39 -7 46 -15 7 -9 21 -13 31 -10 14 5 19
1 19 -11 0 -12 3 -15 10 -8 15 15 0 52 -23 58 -12 3 -61 6 -109 6 l-88 0 0
-158z"/>
<path d="M7540 1641 c0 -5 7 -11 15 -15 12 -4 15 -31 15 -151 0 -120 -3 -147
-15 -151 -8 -4 -15 -12 -15 -20 0 -10 15 -14 58 -14 l59 0 -11 43 c-6 23 -14
47 -18 53 -10 16 20 54 43 54 14 0 19 -7 19 -25 0 -14 8 -29 20 -35 11 -6 20
-18 20 -27 0 -9 11 -26 26 -39 23 -22 33 -24 135 -24 91 0 109 2 109 15 0 9
-7 18 -15 21 -12 5 -15 31 -15 144 0 113 3 139 15 144 8 3 15 12 15 21 0 11
-12 15 -50 15 -36 0 -50 -4 -50 -14 0 -8 7 -16 15 -20 12 -4 15 -30 15 -148
l0 -143 -30 -14 c-27 -11 -35 -11 -65 3 -21 10 -35 24 -35 35 0 10 -9 21 -20
24 -13 3 -20 14 -20 30 0 14 -7 27 -15 31 -22 8 -19 19 20 59 26 27 35 45 35
71 0 31 -5 38 -43 61 -38 22 -56 25 -130 25 -48 0 -87 -4 -87 -9z m189 -91 c0
-52 -1 -56 -32 -70 -27 -13 -37 -13 -57 -3 -14 7 -19 13 -12 13 10 0 13 16 11
59 -3 79 10 96 56 73 33 -16 35 -19 34 -72z"/>
<path d="M8117 1638 c10 -12 17 -135 14 -255 -1 -42 -5 -53 -21 -58 -11 -3
-20 -13 -20 -21 0 -10 13 -14 50 -14 45 0 50 2 41 18 -5 9 -12 58 -16 108 -6
75 -4 92 9 103 22 18 36 5 36 -34 0 -21 8 -41 19 -52 13 -12 21 -35 23 -68 3
-48 4 -50 36 -51 34 -2 33 -3 36 66 1 26 -4 38 -19 45 -11 6 -21 21 -23 33 -2
12 -9 22 -17 22 -16 0 -25 22 -25 60 0 19 -7 33 -19 40 -11 5 -21 22 -23 37
-3 25 -7 28 -47 31 -36 3 -42 1 -34 -10z"/>
<path d="M8422 1638 c-7 -7 -12 -21 -12 -33 0 -12 -7 -30 -15 -41 -18 -24 -19
-51 -3 -56 17 -6 24 -168 9 -197 -11 -20 -10 -21 49 -21 45 0 60 4 60 14 0 8
-6 16 -13 19 -17 6 -15 299 2 305 6 2 11 8 11 13 0 13 -74 11 -88 -3z"/>
<path d="M8736 1638 c-3 -7 -7 -25 -10 -40 -3 -16 -9 -39 -12 -52 -5 -21 -2
-25 22 -28 26 -3 29 -7 29 -38 0 -33 -2 -35 -37 -38 -32 -3 -40 1 -49 22 -15
32 -29 24 -29 -17 0 -43 15 -66 32 -49 18 18 80 14 106 -7 24 -21 28 -51 12
-82 -10 -18 -7 -19 56 -19 l67 0 -24 26 c-13 14 -23 27 -21 30 7 12 0 22 -18
27 -16 4 -20 14 -20 49 0 32 -5 46 -20 56 -14 8 -20 23 -20 48 0 21 -8 47 -20
61 -11 14 -20 32 -20 39 0 18 -19 28 -24 12z"/>
<path d="M8334 1468 c3 -13 6 -30 6 -37 0 -10 3 -11 9 -5 12 11 2 64 -11 64
-6 0 -8 -10 -4 -22z"/>
<path d="M8616 1373 c-3 -3 -6 -14 -6 -24 0 -10 -9 -23 -20 -29 -34 -18 -22
-30 30 -30 36 0 50 4 50 14 0 8 -7 16 -15 20 -8 3 -15 14 -15 25 0 21 -13 35
-24 24z"/>
<path d="M5210 1350 c0 -11 -6 -23 -14 -26 -8 -3 -17 -12 -20 -20 -4 -11 5
-14 44 -14 36 0 50 4 50 14 0 8 -7 16 -15 20 -8 3 -15 15 -15 26 0 11 -7 20
-15 20 -8 0 -15 -9 -15 -20z"/>
<path d="M8150 924 c-52 -9 -100 -28 -100 -39 0 -7 -9 -15 -20 -18 -15 -4 -20
-14 -20 -36 0 -20 -7 -34 -20 -41 -15 -8 -20 -21 -20 -55 0 -32 6 -51 20 -65
11 -11 20 -28 20 -37 0 -37 98 -83 166 -78 16 1 46 3 67 3 35 2 38 4 35 29 -3
28 -28 46 -28 20 0 -15 -49 -31 -85 -28 -37 4 -85 35 -85 56 0 11 -9 26 -20
33 -17 10 -20 23 -20 78 0 58 3 67 20 71 11 3 23 15 26 27 15 60 164 78 164
20 0 -9 6 -14 13 -12 14 5 22 47 10 58 -10 11 -90 19 -123 14z"/>
<path d="M8515 923 c-49 -5 -105 -25 -105 -38 0 -7 -10 -19 -21 -27 -19 -12
-21 -23 -22 -118 0 -94 2 -105 22 -121 11 -9 21 -22 21 -27 0 -18 60 -35 118
-33 65 1 125 18 116 32 -3 6 3 13 15 16 12 3 21 8 22 12 0 3 2 19 3 34 1 16 9
33 19 38 25 14 23 80 -3 102 -12 10 -20 29 -20 47 0 20 -5 30 -15 30 -8 0 -15
4 -15 10 0 22 -80 48 -135 43z m73 -42 c12 -11 22 -26 22 -35 0 -8 9 -20 20
-26 17 -9 20 -21 20 -90 0 -69 -3 -81 -20 -90 -11 -6 -20 -18 -20 -28 0 -21
-62 -43 -95 -33 -37 10 -75 48 -75 75 0 14 -6 29 -14 33 -24 14 -25 123 -1
123 14 0 16 5 19 38 2 23 50 52 86 51 19 0 45 -8 58 -18z"/>
<path d="M4500 906 c0 -8 7 -16 15 -20 12 -4 15 -30 15 -145 0 -130 -1 -141
-20 -151 -40 -21 -19 -30 70 -30 82 0 163 18 180 40 3 4 13 9 23 13 9 3 17 16
17 28 0 12 8 23 20 26 18 5 20 14 20 79 0 63 -3 75 -20 84 -11 6 -20 19 -20
29 0 34 -89 61 -201 61 -78 0 -99 -3 -99 -14z m159 -16 c19 -5 52 -22 73 -36
l38 -27 0 -89 c0 -81 -2 -90 -20 -95 -11 -3 -20 -9 -20 -14 0 -12 -49 -36 -81
-40 -15 -2 -38 3 -53 10 l-26 14 0 132 c0 127 1 132 23 143 28 14 26 14 66 2z"/>
<path d="M4897 914 c-12 -12 -8 -22 13 -29 19 -6 20 -15 20 -147 0 -131 -1
-140 -20 -145 -11 -3 -20 -12 -20 -19 0 -11 23 -14 110 -14 128 0 160 10 160
52 0 18 -5 28 -15 28 -8 0 -15 -6 -15 -14 0 -15 -17 -24 -69 -37 -26 -6 -42
-4 -63 9 -24 14 -28 23 -28 62 0 39 4 49 25 60 21 11 29 11 50 0 18 -10 28
-10 38 -2 8 7 16 9 19 6 8 -7 20 45 13 55 -5 9 -63 0 -83 -13 -5 -3 -23 -3
-38 0 -28 5 -29 7 -26 58 3 46 7 53 31 64 33 15 74 3 90 -25 13 -24 34 -4 29
28 -3 23 -6 24 -109 27 -58 1 -108 -1 -112 -4z"/>
<path d="M5220 906 c0 -8 7 -16 15 -20 12 -4 15 -30 15 -143 0 -127 -2 -138
-22 -160 l-21 -23 117 0 c64 0 126 5 137 10 24 13 27 70 4 70 -8 0 -15 -7 -15
-15 0 -8 -1 -15 -3 -15 -1 0 -25 -8 -54 -19 -37 -13 -54 -16 -62 -8 -7 7 -11
64 -11 153 0 113 3 146 15 158 8 8 15 17 15 20 0 3 -29 6 -65 6 -49 0 -65 -3
-65 -14z"/>
<path d="M5770 883 c0 -21 -3 -48 -6 -60 -5 -20 -2 -23 20 -23 26 0 27 -2 24
-42 -3 -46 -6 -48 -83 -37 -29 4 -30 3 -35 -46 -3 -33 -9 -49 -18 -47 -7 1
-15 -6 -19 -15 -3 -10 -13 -26 -21 -35 -14 -17 -12 -18 36 -18 l50 0 0 45 c0
58 15 75 62 75 64 0 70 -6 70 -66 l0 -54 50 0 c38 0 50 4 50 15 0 8 -7 15 -15
15 -10 0 -15 11 -15 35 0 23 -5 35 -14 35 -18 0 -26 22 -26 71 0 27 -4 39 -14
39 -18 0 -26 22 -26 76 0 38 -4 45 -30 59 -40 20 -40 20 -40 -22z"/>
<path d="M5970 880 c0 -29 4 -40 15 -40 8 0 15 8 15 18 0 11 14 25 35 35 33
16 35 16 45 -3 5 -10 10 -79 10 -152 0 -121 -2 -136 -20 -156 l-21 -22 77 0
77 0 -21 23 c-20 22 -22 33 -22 159 0 96 4 139 13 146 18 15 69 2 75 -20 7
-29 27 -16 30 20 l3 32 -155 0 -156 0 0 -40z"/>
<path d="M6340 911 c0 -5 7 -14 15 -21 12 -10 15 -40 15 -148 0 -126 -2 -137
-22 -159 l-21 -23 114 0 c149 0 159 3 159 46 0 24 -5 34 -15 34 -8 0 -15 -8
-15 -19 0 -14 -12 -21 -52 -29 -28 -5 -58 -8 -65 -5 -20 8 -18 286 2 307 8 8
15 17 15 20 0 3 -29 6 -65 6 -36 0 -65 -4 -65 -9z"/>
<path d="M6798 913 c-26 -4 -28 -8 -28 -47 0 -28 6 -48 18 -59 11 -10 18 -30
17 -54 0 -31 -4 -38 -20 -38 -14 0 -22 11 -30 45 -8 34 -13 41 -18 27 -4 -10
-4 -29 -1 -42 4 -18 0 -27 -20 -40 -19 -13 -26 -26 -26 -51 0 -22 -6 -37 -19
-43 -10 -6 -21 -20 -24 -31 -4 -18 0 -20 34 -20 24 0 39 5 40 13 1 6 2 32 3
57 l1 45 54 3 c30 2 59 -2 64 -7 6 -6 10 -33 10 -61 l-1 -50 157 1 c86 1 148
3 139 6 -11 3 -20 18 -23 41 -14 87 -14 86 -35 67 -16 -14 -20 -15 -21 -4 -1
22 -17 -21 -24 -63 -6 -36 -8 -38 -45 -38 -22 0 -40 4 -40 9 0 5 -9 11 -20 14
-16 4 -20 14 -20 46 0 30 -5 43 -20 51 -16 8 -20 21 -20 60 0 36 -4 50 -14 50
-18 0 -26 22 -26 76 0 24 -3 43 -7 43 -5 -1 -20 -4 -35 -6z"/>
<path d="M7041 890 c12 -16 28 -31 36 -34 7 -3 13 -11 13 -18 0 -15 38 -52 63
-61 9 -3 17 -15 17 -26 0 -11 9 -25 20 -31 11 -6 20 -19 20 -30 0 -10 9 -22
20 -25 11 -3 20 -13 20 -20 0 -8 9 -19 19 -25 11 -5 21 -20 23 -32 2 -17 11
-23 33 -25 l31 -2 2 166 c2 101 7 172 14 180 8 10 1 13 -36 13 -51 0 -62 -18
-25 -43 17 -12 21 -28 25 -101 4 -75 2 -86 -12 -86 -28 0 -84 40 -84 61 0 10
-7 19 -15 19 -9 0 -20 11 -24 24 -5 13 -17 26 -25 29 -9 4 -16 16 -16 27 0 11
-7 20 -15 20 -9 0 -20 11 -25 25 -8 22 -16 25 -55 25 l-46 0 22 -30z"/>
<path d="M7454 905 c-4 -8 -3 -23 1 -32 6 -17 8 -16 24 4 16 19 43 27 79 24 9
-1 12 -38 12 -152 0 -141 -1 -151 -19 -156 -11 -3 -22 -11 -25 -19 -4 -11 10
-14 72 -14 l77 0 -37 25 -36 24 -1 136 c-2 122 0 136 16 141 10 3 26 10 35 15
13 7 21 4 30 -11 7 -11 18 -20 24 -20 14 0 26 28 18 41 -3 5 -64 9 -135 9
-106 0 -131 -3 -135 -15z"/>
<path d="M7814 908 c-4 -6 1 -17 12 -25 17 -12 19 -29 21 -143 3 -120 1 -130
-17 -140 -11 -6 -20 -17 -20 -25 0 -11 13 -15 55 -15 40 0 55 4 55 14 0 7 -9
16 -20 19 -19 5 -20 14 -20 145 0 132 1 141 20 147 11 3 20 13 20 21 0 18 -95
20 -106 2z"/>
<path d="M5734 797 c-8 -22 4 -70 16 -62 13 8 13 45 0 65 -8 12 -10 12 -16 -3z"/>
</g>
</svg>
